<?xml version="1.0" standalone="no"?>
<!DOCTYPE svg PUBLIC "-//W3C//DTD SVG 20010904//EN"
 "http://www.w3.org/TR/2001/REC-SVG-20010904/DTD/svg10.dtd">
<svg version="1.0" xmlns="http://www.w3.org/2000/svg"
 width="832.000000pt" height="832.000000pt" viewBox="0 0 832.000000 832.000000"
 preserveAspectRatio="xMidYMid meet">
<metadata>
Created by potrace 1.11, written by Peter Selinger 2001-2013
</metadata>
<g transform="translate(0.000000,832.000000) scale(0.100000,-0.100000)"
fill="#000000" stroke="none">
<path d="M3767 8274 c-1 -1 -27 -5 -57 -8 -30 -4 -66 -9 -80 -11 -14 -3 -38
-7 -55 -10 -16 -3 -41 -7 -55 -10 -14 -3 -35 -8 -47 -11 -12 -2 -34 -9 -49
-14 -15 -6 -29 -8 -32 -6 -2 3 -17 -1 -33 -10 -16 -8 -31 -14 -34 -13 -3 1
-18 -3 -33 -9 -118 -44 -155 -59 -212 -85 -71 -32 -168 -81 -215 -107 -62 -35
-110 -64 -115 -70 -7 -7 -42 -29 -60 -37 -8 -4 -17 -9 -20 -13 -3 -3 -21 -17
-40 -30 -177 -120 -322 -243 -535 -455 -144 -143 -171 -173 -327 -359 -18 -21
-51 -64 -98 -126 -14 -18 -30 -38 -36 -44 -6 -6 -13 -16 -15 -21 -2 -6 -22
-35 -44 -65 -31 -43 -54 -62 -105 -87 -129 -64 -245 -151 -335 -254 -40 -44
-95 -125 -95 -138 0 -5 -6 -16 -13 -23 -11 -11 -59 -126 -63 -153 -1 -5 -6
-28 -12 -50 -32 -118 -35 -296 -8 -470 3 -16 5 -32 6 -35 2 -3 2 -9 1 -13 -1
-5 5 -30 13 -58 8 -27 12 -49 9 -49 -3 0 0 -7 7 -15 6 -8 9 -18 7 -22 -3 -5 0
-22 7 -38 7 -17 28 -70 46 -120 18 -49 50 -128 72 -174 l39 -84 -33 -29 c-117
-105 -213 -210 -295 -324 -48 -65 -147 -275 -158 -334 -1 -3 -4 -18 -8 -35
-28 -117 -35 -194 -31 -330 2 -71 6 -147 8 -168 l4 -38 -137 1 c-75 1 -142 1
-149 0 -13 0 -13 -4 3 -75 4 -17 28 -126 39 -175 2 -8 9 -33 14 -55 6 -22 13
-52 16 -68 3 -15 8 -37 12 -49 3 -12 15 -60 26 -107 10 -47 21 -95 23 -106 25
-105 34 -140 35 -140 1 0 3 -11 5 -25 2 -14 13 -63 24 -110 12 -47 24 -96 27
-110 3 -14 10 -43 15 -65 5 -22 11 -49 14 -60 2 -11 11 -49 20 -85 8 -36 18
-74 20 -85 12 -54 17 -75 16 -80 0 -2 5 -19 10 -37 6 -18 12 -44 15 -58 3 -14
10 -43 16 -65 10 -41 14 -58 23 -98 14 -69 67 -294 72 -307 3 -8 7 -26 9 -40
2 -14 6 -36 11 -50 4 -14 7 -29 8 -35 2 -15 47 -208 53 -225 3 -8 7 -24 8 -35
2 -11 8 -38 14 -60 6 -22 12 -49 14 -60 1 -11 6 -27 9 -35 3 -8 11 -42 18 -75
7 -33 14 -64 15 -70 6 -22 17 -71 19 -90 2 -11 4 -20 5 -20 1 0 3 -7 5 -15 2
-8 13 -55 25 -105 29 -122 30 -126 36 -154 44 -215 102 -344 202 -450 37 -39
71 -71 75 -71 4 0 18 -9 30 -21 27 -25 149 -84 197 -95 19 -4 42 -9 50 -11 8
-2 38 -7 65 -11 64 -9 5005 -8 5065 2 51 8 140 35 155 46 6 5 12 8 15 7 3 -1
35 15 70 36 167 98 287 267 324 457 3 14 17 72 31 130 14 58 28 119 31 135 9
45 12 60 14 60 1 0 3 9 5 20 2 11 16 70 30 130 15 61 28 118 30 128 2 10 6 26
9 35 3 9 7 29 10 45 3 15 7 35 10 45 3 9 8 28 10 42 3 14 15 63 26 110 12 47
23 96 25 110 3 14 16 70 30 125 14 55 27 110 29 123 3 12 7 30 10 40 3 9 7 28
10 42 2 14 27 122 56 240 59 250 55 233 65 288 4 23 12 45 16 48 5 3 7 9 5 13
-3 4 -1 25 5 46 6 20 12 45 14 54 4 19 32 138 35 149 5 17 9 30 21 87 7 33 15
64 17 69 3 5 6 21 8 35 1 14 5 35 8 46 22 86 39 154 42 178 2 16 6 33 9 38 4
5 8 17 9 26 4 24 19 97 21 103 20 68 25 93 21 97 -3 3 -1 13 4 23 5 9 11 28
14 41 2 13 14 62 25 109 36 143 37 132 -17 130 -26 -1 -51 -1 -57 0 -5 0 -102
1 -214 0 -191 0 -203 1 -196 17 7 20 10 33 19 84 3 19 8 45 11 59 31 144 49
404 34 485 -4 22 -10 56 -13 75 -30 198 -145 345 -348 450 -27 14 -48 29 -49
35 -3 37 -8 76 -14 111 -3 21 -8 48 -9 59 -2 11 -7 40 -10 65 -4 25 -9 53 -12
62 -3 9 -7 27 -9 40 -3 13 -9 44 -15 69 -6 26 -12 54 -14 63 -1 8 -5 19 -9 22
-4 4 -7 14 -7 23 0 29 -74 245 -114 336 -38 83 -123 247 -134 255 -4 3 -13 17
-21 32 -8 15 -21 36 -30 45 -9 10 -29 36 -46 58 -63 84 -277 285 -304 285 -6
0 -11 4 -11 9 0 5 -15 16 -34 25 -18 8 -39 22 -46 31 -7 8 -18 15 -24 15 -6 0
-27 10 -46 22 -19 12 -37 23 -40 23 -3 1 -36 16 -74 33 -38 18 -71 32 -73 32
-3 0 -19 6 -36 14 -67 31 -303 97 -467 132 -19 4 -39 9 -45 10 -67 15 -175 37
-195 39 -14 2 -35 5 -46 8 -12 3 -37 8 -55 11 -19 3 -59 10 -89 16 -30 7 -68
14 -85 17 -16 2 -57 11 -90 19 -33 8 -69 16 -80 18 -11 2 -49 11 -85 21 -36 9
-72 18 -81 20 -8 2 -32 10 -52 19 -20 8 -37 13 -37 11 0 -7 -144 56 -204 89
-133 75 -258 221 -280 326 -3 14 -9 39 -14 57 -6 17 -8 78 -6 135 5 135 3 122
48 253 15 44 28 85 29 90 4 18 95 185 126 230 33 49 34 47 -44 62 -50 9 -54
10 -57 13 -2 1 -16 3 -33 5 -16 2 -50 7 -75 10 -41 6 -348 14 -353 9z"/>
</g>
</svg>
